<?xml version="1.0" encoding="UTF-8"?>
<svg width="158px" height="30px" viewBox="0 0 158 30" version="1.1" xmlns="http://www.w3.org/2000/svg" xmlns:xlink="http://www.w3.org/1999/xlink">
    <!-- Generator: Sketch 56.3 (81716) - https://sketch.com -->
    <title>RR Logo</title>
    <desc>Created with Sketch.</desc>
    <g id="00-Home" stroke="none" stroke-width="1" fill="none" fill-rule="evenodd">
        <g id="00-01-02-Home-Menu" transform="translate(-127.000000, -30.000000)">
            <g id="Header" transform="translate(0.000000, 0.000000)">
                <g transform="translate(127.000000, 30.000000)" id="RR-Logo">
                    <g>
                        <path d="M37.4790698,10.7861985 L40.4705533,10.7861985 L40.4705533,13.6920858 C40.8790473,12.7151304 41.4598589,11.9334651 42.2114675,11.3478469 C42.9640898,10.7617241 43.9118364,10.4927586 45.0567346,10.5417073 L45.0567346,13.6673591 L44.8851772,13.6673591 C44.2306239,13.6673591 43.6346079,13.7733305 43.0951018,13.9847687 C42.5555958,14.1967115 42.0890714,14.5138688 41.6967955,14.9372498 C41.3042662,15.3606308 41.0014435,15.8937679 40.7893408,16.5361564 C40.5772382,17.1793019 40.4705533,17.9243818 40.4705533,18.7703869 L40.4705533,23.6786291 L37.4790698,23.6786291 L37.4790698,10.7861985 Z M52.5845793,21.4079899 C53.1854101,21.4079899 53.7261832,21.2977292 54.2051246,21.0779647 C54.6848263,20.8579479 55.0953476,20.5614802 55.4356747,20.1865433 C55.7770156,19.8123633 56.0372658,19.3771236 56.2154117,18.8800673 C56.3945713,18.3842725 56.4842778,17.8589571 56.4842778,17.3051304 L56.4842778,17.2569386 C56.4842778,16.6872161 56.3864622,16.1500421 56.1915913,15.645164 C55.9967204,15.1405383 55.7245601,14.7015139 55.3753636,14.326577 C55.0254069,13.952397 54.6115913,13.6549201 54.1318897,13.4356602 C53.6529482,13.2158957 53.120791,13.1058873 52.5361783,13.1058873 C51.9513123,13.1058873 51.4183949,13.2158957 50.9394534,13.4356602 C50.4597517,13.6549201 50.0494839,13.94836 49.7089033,14.3147183 C49.3675625,14.6808242 49.1073123,15.1160639 48.9291663,15.6206897 C48.7502601,16.1253154 48.6610605,16.6546678 48.6610605,17.2079899 L48.6610605,17.2569386 C48.6610605,17.8266611 48.7581158,18.3597981 48.9537469,18.8558452 C49.1478576,19.3526493 49.420018,19.7924306 49.7694678,20.1744323 C50.1191711,20.5574432 50.5329867,20.8579479 51.0126884,21.0779647 C51.4921366,21.2977292 52.0159314,21.4079899 52.5845793,21.4079899 Z M52.5361783,23.9712363 C51.5549819,23.9712363 50.6434727,23.7963835 49.8013973,23.4466779 C48.9590685,23.0967199 48.2320404,22.6208579 47.6185392,22.0178301 C47.0057982,21.4158116 46.527617,20.7078217 46.1845023,19.8936081 C45.8411342,19.0796468 45.6693235,18.2172414 45.6693235,17.3051304 L45.6693235,17.2569386 C45.6693235,16.3289319 45.8444285,15.4584525 46.1964125,14.6437342 C46.5476362,13.8305299 47.0306322,13.117746 47.6431198,12.5076535 C48.256621,11.8970563 48.9836491,11.412868 49.8259779,11.0545837 C50.6680532,10.696804 51.5874181,10.5171573 52.5845793,10.5171573 C53.5819939,10.5171573 54.5011054,10.692767 55.3434342,11.0424727 C56.1855095,11.3929352 56.9132978,11.872582 57.5260388,12.4831791 C58.1392866,13.0932717 58.6177213,13.8020185 58.9610893,14.6074012 C59.304204,15.4135408 59.4757613,16.2799832 59.4757613,17.2079899 L59.4757613,17.2569386 C59.4757613,18.1682927 59.3001495,19.0312027 58.9481655,19.8446594 C58.5971952,20.6593776 58.114706,21.3708999 57.5014582,21.9812447 C56.8887172,22.5920942 56.1568744,23.0762826 55.30669,23.4340622 C54.4565055,23.7923465 53.5325793,23.9712363 52.5361783,23.9712363 Z M65.7051426,23.9227166 C64.7731073,23.9227166 63.8291618,23.7579563 62.872546,23.4294449 C61.9166903,23.1001766 61.0292549,22.6152313 60.2122669,21.9733474 L61.5360712,19.9672077 C62.2392789,20.4879815 62.9543968,20.8825988 63.6821851,21.1515643 C64.4092132,21.4197729 65.1083663,21.5542557 65.7791378,21.5542557 C66.4162059,21.5542557 66.9106053,21.4283516 67.2625893,21.1765433 C67.613813,20.9242304 67.7894249,20.5878974 67.7894249,20.1652733 L67.7894249,20.1163246 C67.7894249,19.873095 67.7121354,19.6619092 67.5565427,19.483524 C67.4006967,19.3048865 67.1885941,19.150471 66.9192212,19.0205299 C66.6490881,18.890841 66.3384096,18.768217 65.9871859,18.6549285 C65.6352019,18.5411354 65.272068,18.4278469 64.8962637,18.3140538 C64.4213767,18.1841127 63.9434489,18.0299495 63.4614666,17.8510597 C62.9789774,17.6726745 62.5451426,17.4410513 62.1614826,17.156947 C61.7770624,16.8728427 61.4628362,16.5188478 61.2175371,16.0969807 C60.9719846,15.6746089 60.8495885,15.1550967 60.8495885,14.5379394 L60.8495885,14.4887384 C60.8495885,13.8879815 60.9679301,13.3434903 61.2053735,12.8567788 C61.44155,12.3693103 61.7689533,11.9552649 62.1860632,11.6141379 C62.6031731,11.2730109 63.0932645,11.013381 63.6576045,10.8344912 C64.2216911,10.6556013 64.8225219,10.5662826 65.4595901,10.5662826 C66.2773383,10.5662826 67.1029421,10.6979899 67.9371618,10.9608999 C68.7706213,11.2245669 69.5308459,11.5863835 70.217582,12.0466022 L69.0407545,14.1556854 C68.4186374,13.7815055 67.7894249,13.4840286 67.1518499,13.2647687 C66.5147817,13.0447519 65.9261145,12.9349958 65.3866085,12.9349958 C64.8136526,12.9349958 64.3686678,13.0568629 64.0501338,13.3005971 C63.730586,13.5443314 63.5716991,13.85291 63.5716991,14.2258284 L63.5716991,14.2747771 C63.5716991,14.502111 63.65355,14.7014382 63.8172516,14.8714971 C63.9801931,15.0425652 64.1971105,15.1962237 64.4664834,15.3347435 C64.7366165,15.4725063 65.0465347,15.6026997 65.3985187,15.7248192 C65.7497424,15.8466863 66.1136366,15.9637595 66.4902011,16.0778049 C66.963821,16.2241463 67.4379477,16.3944575 67.9123278,16.5892431 C68.3862011,16.7845332 68.8149678,17.0237258 69.1996414,17.3083347 C69.5835548,17.5926913 69.8987945,17.937603 70.1435868,18.3438267 C70.3891394,18.7497981 70.5115355,19.2453406 70.5115355,19.8294449 L70.5115355,19.8786459 C70.5115355,20.5606476 70.3891394,21.1533305 70.1435868,21.656947 C69.8987945,22.1610681 69.5589742,22.5788982 69.1264064,22.9114466 C68.692825,23.2444996 68.1817007,23.4963078 67.5937937,23.6671236 C67.0048731,23.8374348 66.3751538,23.9227166 65.7051426,23.9227166 Z M81.1792597,16.3289571 C81.1306053,15.8566274 81.0241739,15.413566 80.8607256,14.998259 C80.6970239,14.5829521 80.476052,14.2251724 80.19857,13.9239108 C79.9205812,13.622397 79.5893767,13.3826997 79.2054634,13.203053 C78.8210431,13.0244155 78.383914,12.9348444 77.8935692,12.9348444 C76.9774986,12.9348444 76.2218354,13.248217 75.6253126,13.8747098 C75.0277761,14.501455 74.6646422,15.3194533 74.5333767,16.3289571 L81.1792597,16.3289571 Z M78.2369373,23.9712616 C77.304902,23.9712616 76.4339381,23.8082675 75.6253126,23.4830362 C74.8156735,23.1578049 74.1124658,22.7016232 73.5156895,22.116005 C72.9189132,21.5296299 72.4493479,20.825677 72.1059798,20.0036417 C71.7628651,19.1818587 71.5913078,18.2742893 71.5913078,17.2811859 L71.5913078,17.2322372 C71.5913078,16.3042304 71.7461402,15.4340034 72.0568186,14.6192851 C72.367497,13.8058284 72.8046261,13.0932969 73.3687128,12.4832044 C73.9327994,11.8723549 74.5987561,11.3929605 75.3675965,11.0424979 C76.1361835,10.6927923 76.9863679,10.5171825 77.9181498,10.5171825 C78.9480006,10.5171825 79.8506406,10.704651 80.6278435,11.078831 C81.4042861,11.4537679 82.0502236,11.957889 82.5648956,12.5932128 C83.079821,13.2275273 83.4682957,13.9642809 83.7295596,14.8027166 C83.9913302,15.6411522 84.1220889,16.5242473 84.1220889,17.452254 C84.1220889,17.5826997 84.1182877,17.7164256 84.1101787,17.8549453 C84.1015628,17.9934651 84.0896526,18.1357696 84.0729277,18.282111 L74.5582107,18.282111 C74.7219124,19.3408158 75.1428234,20.1502355 75.8214505,20.7116316 C76.4993174,21.2735324 77.3208667,21.5543566 78.2855917,21.5543566 C79.0212356,21.5543566 79.659064,21.4236585 80.19857,21.163524 C80.738076,20.9031371 81.2689662,20.5201262 81.7925075,20.0155004 L83.5334217,21.5543566 C82.9123182,22.2868209 82.1723663,22.872439 81.3143262,23.3122204 C80.4560327,23.7520017 79.4297296,23.9712616 78.2369373,23.9712616 Z" id="rose" fill="#222222"></path>
                        <path d="M87.359277,10.7861985 L90.351014,10.7861985 L90.351014,13.6920858 C90.7592545,12.7151304 91.3400661,11.9334651 92.0919281,11.3478469 C92.844297,10.7617241 93.792297,10.4927586 94.9369418,10.5417073 L94.9369418,13.6673591 L94.7653844,13.6673591 C94.1108311,13.6673591 93.5148151,13.7733305 92.9753091,13.9847687 C92.4355496,14.1967115 91.9692786,14.5138688 91.5770027,14.9372498 C91.1844735,15.3606308 90.8816507,15.8937679 90.669548,16.5361564 C90.4574454,17.1793019 90.351014,17.9243818 90.351014,18.7703869 L90.351014,23.6786291 L87.359277,23.6786291 L87.359277,10.7861985 Z M102.464787,21.4079899 C103.065617,21.4079899 103.60639,21.2977292 104.085585,21.0779647 C104.565034,20.8579479 104.975301,20.5614802 105.316135,20.1865433 C105.657476,19.8123633 105.917473,19.3771236 106.095619,18.8800673 C106.274525,18.3842725 106.364485,17.8589571 106.364485,17.3051304 L106.364485,17.2569386 C106.364485,16.6872161 106.266669,16.1500421 106.071545,15.645164 C105.876928,15.1405383 105.604767,14.7015139 105.255571,14.326577 C104.905614,13.952397 104.491799,13.6549201 104.012097,13.4356602 C103.533155,13.2158957 103.000998,13.1058873 102.416386,13.1058873 C101.831519,13.1058873 101.298602,13.2158957 100.819661,13.4356602 C100.339959,13.6549201 99.9296911,13.94836 99.5888571,14.3147183 C99.2477697,14.6808242 98.9875195,15.1160639 98.8093735,15.6206897 C98.6304674,16.1253154 98.5412677,16.6546678 98.5412677,17.2079899 L98.5412677,17.2569386 C98.5412677,17.8266611 98.638323,18.3597981 98.8339541,18.8558452 C99.0280648,19.3526493 99.3004786,19.7924306 99.6496751,20.1744323 C99.9993783,20.5574432 100.413194,20.8579479 100.892896,21.0779647 C101.372344,21.2977292 101.896139,21.4079899 102.464787,21.4079899 Z M102.416386,23.9712363 C101.435189,23.9712363 100.52368,23.7963835 99.6816045,23.4466779 C98.8392757,23.0967199 98.1122476,22.6208579 97.4987464,22.0178301 C96.8860055,21.4158116 96.4078242,20.7078217 96.0644561,19.8936081 C95.7213415,19.0796468 95.5497841,18.2172414 95.5497841,17.3051304 L95.5497841,17.2569386 C95.5497841,16.3289319 95.7246358,15.4584525 96.0766197,14.6437342 C96.4278435,13.8305299 96.9108395,13.117746 97.5235804,12.5076535 C98.1368282,11.8970563 98.8638563,11.412868 99.7059317,11.0545837 C100.548514,10.696804 101.467625,10.5171573 102.464787,10.5171573 C103.462201,10.5171573 104.381313,10.692767 105.223641,11.0424727 C106.065717,11.3929352 106.793505,11.872582 107.406246,12.4831791 C108.019494,13.0932717 108.497928,13.8020185 108.841043,14.6074012 C109.184411,15.4135408 109.355969,16.2799832 109.355969,17.2079899 L109.355969,17.2569386 C109.355969,18.1682927 109.180357,19.0312027 108.828373,19.8446594 C108.477402,20.6593776 107.994913,21.3708999 107.381665,21.9812447 C106.768924,22.5920942 106.037335,23.0762826 105.186897,23.4340622 C104.336966,23.7923465 103.412787,23.9712363 102.416386,23.9712363 Z M117.154048,23.9712616 C116.189323,23.9712616 115.298086,23.7964087 114.480338,23.4467031 C113.662083,23.0967452 112.953047,22.6206308 112.350949,22.0178553 C111.749612,21.4158368 111.279793,20.7075946 110.942,19.8936333 C110.603953,19.079672 110.43493,18.2172666 110.43493,17.3051556 L110.43493,17.2569638 C110.43493,16.3453574 110.603953,15.4784104 110.942,14.6563751 C111.279793,13.8343398 111.749612,13.1177712 112.350949,12.5076787 C112.953047,11.8970816 113.666644,11.4128932 114.492248,11.0546089 C115.318612,10.6968293 116.213903,10.5171825 117.178628,10.5171825 C118.404617,10.5171825 119.422304,10.7213036 120.231944,11.128032 C121.041076,11.534508 121.748085,12.072439 122.353477,12.7395542 L120.51424,14.7174348 C120.055571,14.2451051 119.569281,13.8588141 119.054609,13.5575526 C118.539684,13.2560387 117.905656,13.1059125 117.154048,13.1059125 C116.614542,13.1059125 116.115328,13.2159209 115.658686,13.4356854 C115.200271,13.6549453 114.807741,13.9483852 114.481098,14.3147435 C114.153695,14.6808495 113.896486,15.1160892 113.70871,15.6207149 C113.520428,16.1253406 113.426667,16.654693 113.426667,17.2077628 L113.426667,17.2569638 C113.426667,17.826434 113.520428,18.3636081 113.70871,18.8682338 C113.896486,19.3728595 114.162311,19.8123886 114.505679,20.1865685 C114.848794,20.5612532 115.257541,20.8579731 115.731668,21.0779899 C116.206048,21.2977544 116.728829,21.4080151 117.301531,21.4080151 C118.003979,21.4080151 118.621535,21.2573844 119.153185,20.9561228 C119.683822,20.6546089 120.186837,20.2685702 120.661217,19.7962405 L122.451292,21.5543566 C121.813971,22.2709251 121.086183,22.852254 120.268688,23.3003616 C119.45094,23.7472077 118.413233,23.9712616 117.154048,23.9712616 Z M123.923315,5.85365854 L126.915052,5.85365854 L126.915052,16.4997477 L132.285025,10.7861228 L135.89077,10.7861228 L130.740249,16.0359966 L136.062327,23.6785534 L132.628646,23.6785534 L128.729962,18.1115223 L126.915052,19.9917578 L126.915052,23.6785534 L123.923315,23.6785534 L123.923315,5.85365854 Z M145.846594,16.3289571 C145.797433,15.8566274 145.691002,15.413566 145.5273,14.998259 C145.363852,14.5829521 145.14288,14.2251724 144.866158,13.9239108 C144.587916,13.622397 144.256965,13.3826997 143.872291,13.203053 C143.487618,13.0244155 143.051502,12.9348444 142.560397,12.9348444 C141.645087,12.9348444 140.889424,13.248217 140.291887,13.8747098 C139.694604,14.501455 139.331217,15.3194533 139.200965,16.3289571 L145.846594,16.3289571 Z M142.903765,23.9712616 C141.97249,23.9712616 141.100766,23.8082675 140.291887,23.4830362 C139.483008,23.1578049 138.77904,22.7016232 138.183278,22.116005 C137.585741,21.5296299 137.116176,20.825677 136.772808,20.0036417 C136.429693,19.1818587 136.257882,18.2742893 136.257882,17.2811859 L136.257882,17.2322372 C136.257882,16.3042304 136.413475,15.4340034 136.723647,14.6192851 C137.035085,13.8058284 137.471201,13.0932969 138.035541,12.4832044 C138.599627,11.8723549 139.266091,11.3929605 140.035185,11.0424979 C140.803011,10.6927923 141.652942,10.5171825 142.585738,10.5171825 C143.615335,10.5171825 144.517468,10.704651 145.294418,11.078831 C146.071621,11.4537679 146.717051,11.957889 147.231723,12.5932128 C147.746649,13.2275273 148.135124,13.9642809 148.397148,14.8027166 C148.658158,15.6411522 148.789677,16.5242473 148.789677,17.452254 C148.789677,17.5826997 148.785876,17.7164256 148.777513,17.8549453 C148.768391,17.9934651 148.756227,18.1357696 148.740516,18.282111 L139.224785,18.282111 C139.38874,19.3408158 139.810412,20.1502355 140.488785,20.7116316 C141.165892,21.2735324 141.988201,21.5543566 142.952926,21.5543566 C143.68857,21.5543566 144.325892,21.4236585 144.866158,21.163524 C145.404904,20.9031371 145.936047,20.5201262 146.460096,20.0155004 L148.20025,21.5543566 C147.578893,22.2868209 146.839194,22.872439 145.980901,23.3122204 C145.123114,23.7520017 144.097318,23.9712616 142.903765,23.9712616 Z M154.919291,23.8983431 C154.380292,23.8983431 153.878797,23.8327418 153.418355,23.703053 C152.955378,23.5723549 152.55626,23.361169 152.218467,23.0677292 C151.880421,22.7750463 151.620931,22.3890076 151.440251,21.9078469 C151.257797,21.4284525 151.167077,20.8302187 151.167077,20.1136501 L151.167077,13.325677 L149.524231,13.325677 L149.524231,10.786148 L151.167077,10.786148 L151.167077,7.24594617 L154.159574,7.24594617 L154.159574,10.786148 L157.641402,10.786148 L157.641402,13.325677 L154.159574,13.325677 L154.159574,19.6491421 C154.159574,20.2196215 154.297935,20.6303869 154.576177,20.8826997 C154.853912,21.1350126 155.246441,21.2609167 155.753511,21.2609167 C156.390833,21.2609167 157.004081,21.1145753 157.593508,20.82164 L157.593508,23.2387973 C157.216943,23.4507401 156.816305,23.6134819 156.390833,23.727275 C155.966374,23.8405635 155.475269,23.8983431 154.919291,23.8983431 Z" id="rocket" fill="#1E398F"></path>
                        <path d="M21.8553593,16.3063748 L19.5538057,18.5977239 L18.8244782,19.3241554 L18.3539693,19.7926307 L15.6207939,22.513736 L15.2785354,21.4483202 L15.1847941,21.1554911 L15.1564657,21.0675398 L15.0758585,20.8170196 L15.0343961,20.6872723 L14.9671805,20.4780354 L14.8955869,20.2549519 L13.7068243,16.5527923 L13.575226,16.1425238 L12.7825459,13.6742464 L12.7485518,13.5678331 L12.6396163,13.2285924 L12.5306807,12.8893517 L11.4245855,9.44412262 L11.3442359,9.19437172 L11.6561058,8.88359339 L11.9527814,8.58820012 L12.2497145,8.29280686 L12.8904514,7.65483947 L12.8891637,7.65330096 C13.1387112,7.40508857 13.3663685,7.17944094 13.5759986,6.97302464 C13.6548031,6.89533006 13.7312897,6.82019965 13.8054586,6.74814626 C13.9535389,6.60301381 14.0920905,6.46839448 14.2224012,6.34300619 C14.2193108,6.34326261 14.2159629,6.34326261 14.2128725,6.34351903 C14.2996604,6.26197818 14.3869634,6.18120659 14.475039,6.10222992 C15.6977956,4.94758073 16.2064192,4.6439821 17.6730576,3.83421481 C17.7585579,3.78677752 17.8502389,3.74216083 17.9457828,3.69959548 C19.9339213,2.63392326 21.9586292,1.96698066 23.5900874,1.55594298 C24.0616265,1.43722156 24.5166836,1.33542371 24.949593,1.24772883 C25.5774533,1.64671487 26.1731223,2.11647221 26.7216631,2.66264205 C27.2699464,3.20855546 27.741743,3.80164975 28.142461,4.42653984 C28.0554156,4.85244974 27.954721,5.29989874 27.8372869,5.76324563 C27.1579204,8.44460618 25.7806452,12.1895876 23.0580286,15.0814671 C23.0508177,15.0953137 23.0466972,15.1035191 23.0466972,15.1035191 L23.0351083,15.1150579 L22.836037,15.3114739 L22.631815,15.5132746 L22.3451831,15.7966163 L22.0124532,16.1458573 C21.969188,16.2048333 21.9073806,16.2545784 21.8553593,16.3063748 L21.8553593,16.3063748 Z M14.3936592,21.3249832 L14.1760456,21.5416562 L12.8639257,22.8481047 L12.4039755,21.3806259 L12.2886017,21.0118971 L12.1698799,20.6336809 L11.5991915,18.8131148 L11.4706836,18.4038721 L11.3424332,17.9938601 L10.5986839,15.6207137 L11.6821164,15.9458514 L12.0866974,16.067137 L12.4912785,16.1884226 L12.8783474,16.3043234 L14.2419735,20.5523965 L14.2661814,20.6277833 L14.3758896,20.968819 L14.466798,21.2521606 L14.3936592,21.3249832 Z M9.87630979,19.4349279 C9.45730702,19.0179926 9.13925637,18.5392607 8.92318795,18.0074502 L10.7740625,18.5649024 L11.3493865,20.3998279 C10.7993005,20.1841806 10.3053563,19.8623763 9.87630979,19.4349279 L9.87630979,19.4349279 Z M8.29970565,17.0776794 L7.92808857,16.9656248 L6.49467162,16.5340738 L7.86138807,15.1732647 L7.95538685,15.0794158 L8.14930761,14.8863332 L8.33782023,14.9430015 L8.6818815,15.0460815 L8.76223114,15.0701847 L9.77381249,15.3732705 L10.5175617,17.7453913 L8.68007878,17.1920417 L8.29970565,17.0776794 Z M8.33447232,14.1999029 L8.14930761,14.1445166 L7.9466308,14.084002 L6.78387881,13.7350175 L9.48924085,11.0410924 L10.0189819,10.5136411 L10.6710501,9.86464775 L10.7766378,9.75926005 L10.9038581,10.1551691 L10.9123566,10.1818365 L10.9512437,10.3028657 L11.8345747,13.0537155 L11.9435103,13.3929562 L12.0524458,13.7321969 L12.6146358,15.4835302 L12.2628486,15.3781425 L11.8582675,15.2566005 L11.4536865,15.1355713 L10.3419256,14.8019718 L9.92961868,14.6783784 L9.62495963,14.5868373 L9.51731172,14.5545286 L9.06148204,14.4181144 L8.8327946,14.3496508 L8.49105111,14.2468273 L8.33447232,14.1999029 Z M18.2241737,20.9262536 L22.3596048,16.8086972 C22.4350614,16.7333104 22.5092303,16.6725393 22.5870046,16.5866394 C22.8071935,16.3791974 23.007295,16.1484214 23.2277415,15.9289278 C26.2887537,12.8811463 27.8002025,8.8130785 28.5287574,5.93709688 C29.3160293,2.82982643 29.3835024,0.472321519 29.3860777,0.373344262 L29.3953488,0 L29.0206414,0.00948745722 C28.9212345,0.0120516348 26.553753,0.0789766709 23.432736,0.863102189 C20.5445271,1.58850804 16.4585419,3.09316747 13.3972722,6.14120542 C13.1554507,6.38223811 12.9213551,6.62301439 12.6939553,6.86379067 C12.6349807,6.91097154 12.5780664,6.96148584 12.5239849,7.01533357 L12.0583691,7.47868047 L10.532241,8.99821213 L8.41018641,11.1113509 L0,12.8549917 L7.01539908,15.0109522 L5.14804257,16.8704939 L8.09110563,17.7569301 C8.32777652,18.5874672 8.75682299,19.3249247 9.37154923,19.9372503 C9.99786437,20.5606019 10.7547477,20.9916401 11.6079475,21.2249803 L12.5345437,24.1809643 L14.3388051,22.3839886 L16.4848101,29.2688055 L18.2241737,20.9262536 Z M21.1128205,10.3896118 C20.9546965,10.3965351 20.7958,10.3849963 20.6402513,10.3560211 C20.3948244,10.3101223 20.1625315,10.2211454 19.9492959,10.0916544 C19.6688448,9.92113658 19.433204,9.68677075 19.2614309,9.40727538 C19.1311203,9.19496148 19.0414995,8.96367265 18.9948864,8.71956294 C18.9657854,8.56494303 18.9541965,8.40647686 18.9608923,8.24877993 C18.9825249,7.73261098 19.1967906,7.24746857 19.5635146,6.88232968 C20.3685562,6.08051133 21.6783583,6.08051133 22.4833999,6.88232968 C23.288699,7.6838916 23.288699,8.98803234 22.4833999,9.78959427 C22.117191,10.1544767 21.6304576,10.3673035 21.1128205,10.3896118 M22.9376844,6.43026516 C21.8820653,5.37920875 20.1648493,5.37920875 19.1094877,6.43026516 C18.7092847,6.82848194 18.4481483,7.33259927 18.3546646,7.88825656 C18.3307142,8.03005558 18.3180952,8.17390595 18.3170651,8.31519213 C18.3157775,8.47801741 18.3294266,8.64289403 18.3582701,8.80571931 C18.4551017,9.35240198 18.7146928,9.84882677 19.1094877,10.2416588 C19.5045401,10.63526 20.0044075,10.8939856 20.5544935,10.9898858 C20.717253,11.0183482 20.8831029,11.0319383 21.0471501,11.0306562 C21.1890496,11.0293742 21.3335245,11.0165533 21.4759391,10.9927064 C22.0324633,10.8993703 22.5379965,10.6396192 22.9374269,10.2416588 C23.4488832,9.73266952 23.730622,9.05598305 23.730622,8.33596197 C23.730622,7.61594089 23.4488832,6.938998 22.9376844,6.43026516" id="RR-Rocket" fill="#1E398F"></path>
                    </g>
                </g>
            </g>
        </g>
    </g>
</svg>